<?xml version="1.0" encoding="iso-8859-1"?>
<!-- Generator: Adobe Illustrator 18.1.1, SVG Export Plug-In . SVG Version: 6.00 Build 0)  -->
<svg version="1.1" id="Capa_1" xmlns="http://www.w3.org/2000/svg" xmlns:xlink="http://www.w3.org/1999/xlink" x="0px" y="0px"
	 viewBox="0 0 749.015 749.015" style="enable-background:new 0 0 749.015 749.015;" xml:space="preserve">
<g>
	<path d="M674.022,592.933c0-0.975-0.975-1.951-0.975-1.951c-59.417-107.306-60.304-263.388-60.304-265.339c0-0.976,0-1.951,0-2.838
		c-0.975-90.013-52.678-168.586-128.324-207.872V70.858C484.418,31.571,452.847,0,413.56,0h-67.044
		c-39.286,0-70.858,31.571-70.858,70.858v39.286c-81.411,37.335-138.877,119.722-138.877,215.499
		c0,1.951-0.975,159.008-60.304,265.339l-0.975,0.976c-8.602,20.131-9.578,36.36-0.975,49.84
		c7.627,13.391,22.969,20.131,44.075,21.993h161.846c4.789,47.889,45.051,85.224,93.826,85.224
		c48.864,0,89.038-37.335,93.826-85.224h161.846h0.976c20.131-0.976,35.473-8.602,43.1-21.993
		C682.624,628.318,682.624,612.089,674.022,592.933z M311.93,69.971c0-19.155,15.342-35.473,35.473-35.473h66.069
		c19.156,0,35.473,15.342,35.473,35.473v29.709c-11.529-3.813-23.944-6.74-36.36-8.602l0,0c-5.764-0.976-11.529-1.951-17.204-1.951
		c-0.975,0-1.951,0-3.813,0c-4.789-0.976-10.553-0.976-16.318-0.976c-4.789,0-9.578,0-14.367,0.976c-0.975,0-1.951,0-3.813,0
		c-3.813,0-8.602,0.976-12.416,0.976c-0.975,0-0.975,0-1.951,0c-10.553,1.951-21.107,3.813-30.684,6.74L311.93,69.971L311.93,69.971
		z M375.161,713.542c-29.709,0-53.653-21.993-58.442-49.84h116.884C428.814,691.549,404.869,713.542,375.161,713.542z
		 M645.289,623.529c-0.976,1.951-5.764,3.813-14.367,4.789H451.783l0,0H298.539l0,0H120.375c-9.578-0.975-14.367-2.838-15.342-4.789
		s-0.975-6.74,2.838-16.318c63.231-114.933,65.093-274.917,65.093-281.568c0-85.224,52.678-158.033,127.349-187.742c0,0,0,0,0.975,0
		c25.895-10.553,52.678-14.367,79.46-14.367l0,0c26.782,0.976,53.653,6.74,78.573,18.18c0,0,0,0,0.975,0
		c70.059,31.66,117.948,102.517,117.948,183.928c0,0.976,0,1.951,0,2.838c0,23.944,4.789,170.448,64.206,278.73
		C646.175,616.878,646.175,621.667,645.289,623.529z M331.085,205.035c4.789,8.602,2.838,19.155-5.764,23.944
		c-1.951,1.951-51.702,34.498-54.629,114.933c0,7.627,1.951,69.882-13.391,141.715c-1.951,8.602-8.602,14.367-17.204,14.367
		c-0.975,0-1.951,0-3.813,0c-9.578-1.951-15.342-11.529-13.391-21.106c14.367-70.858,12.416-134.088,12.416-134.088v-0.975
		c3.813-100.566,68.995-142.691,71.833-144.642C314.856,194.481,325.321,197.319,331.085,205.035z M240.097,548.858
		c0,10.553-8.602,19.155-19.155,19.155c-10.553,0-19.155-8.602-19.155-19.155c0-10.553,8.602-19.155,19.155-19.155
		S240.097,538.305,240.097,548.858z"/>
</g>
<g>
</g>
<g>
</g>
<g>
</g>
<g>
</g>
<g>
</g>
<g>
</g>
<g>
</g>
<g>
</g>
<g>
</g>
<g>
</g>
<g>
</g>
<g>
</g>
<g>
</g>
<g>
</g>
<g>
</g>
</svg>
