<svg height="512pt" viewBox="-19 0 512 512.00119" width="512pt" xmlns="http://www.w3.org/2000/svg"><path d="m469.609375 249.960938c-13.269531-36.859376-44.386719-72.898438-80.421875-70.210938-12.414062-48.707031-41.472656-94.503906-85.757812-119.347656l9.695312-41.328125c3.265625-13.921875-12.566406-24.46875-24.15625-16.101563-23.316406 16.835938-102.464844 50.269532-104.550781 51.402344-52.871094 28.722656-86.386719 70.835938-99.824219 125.34375-35.769531-2.285156-66.617188 33.296875-79.917969 70.242188-17.328125 48.144531 18.980469 102.851562 20.535157 105.160156 3.789062 5.617187 10.769531 8.105468 17.226562 6.199218 1.023438-.300781 10.902344-3.289062 23.671875-9.570312 13.09375 47.726562 41.875 81.160156 81.96875 99.742188l-2.226563 29.519531h-29.769531c-8.554687 0-15.492187 6.9375-15.492187 15.496093 0 8.554688 6.9375 15.492188 15.492187 15.492188h44.140625c8.109375 0 14.84375-6.246094 15.453125-14.328125l2.675781-35.503906c33.816407 8.632812 75.050782 8.847656 107.652344 2.265625l2.503906 33.234375c.605469 8.085937 7.34375 14.332031 15.449219 14.332031h36.3125c8.554688 0 15.492188-6.9375 15.492188-15.492188 0-8.558593-6.9375-15.496093-15.492188-15.496093h-21.9375l-1.910156-25.371094c45.238281-17.515625 77.640625-52.464844 91.753906-103.890625 12.765625 6.28125 22.648438 9.269531 23.671875 9.570312 6.476563 1.910157 13.449219-.597656 17.226563-6.199218 1.554687-2.308594 37.863281-57.015625 20.535156-105.160156zm-270.585937-168.25c4.855468-2.296876 39.574218-16.40625 75.839843-35.234376l-4.390625 18.722657c-1.695312 7.230469 1.980469 14.648437 8.757813 17.679687 39.222656 17.542969 69.78125 59.160156 81.222656 109.871094-8.308594 8-14.253906 19.246094-17.328125 32.863281l-50.253906 29.828125-46.871094-32.667968c-5.304688-3.703126-12.382812-3.722657-17.71875 0l-46.871094 32.667968-50.253906-29.828125c-3.117188-13.839843-9.195312-25.210937-17.699219-33.230469 10.472657-48.808593 38.539063-85.074218 85.566407-110.671874zm-154.0625 245.652343c-7.773438-15.082031-19.480469-43.699219-11.128907-66.90625 12.207031-33.914062 37.535157-54.496093 52.816407-49 16.539062 5.957031 19.597656 38.253907 11.417968 65.519531-7.570312 25.085938-28.730468 40.050782-53.105468 50.386719zm192.179687 110.671875c-79.164063 0-128.53125-35.703125-143.34375-103.414062 20.789063-16.277344 34.605469-36.578125 38.863281-72.078125l41.515625 24.640625c5.226563 3.101562 11.78125 2.863281 16.765625-.613282l46.199219-32.199218 46.199219 32.199218c4.925781 3.433594 11.515625 3.730469 16.769531.613282l41.515625-24.640625c4.09375 34.15625 16.695312 54.722656 38.863281 72.078125-14.824219 67.710937-64.191406 103.414062-143.347656 103.414062zm192.238281-110.695312c-18.949218-8.089844-40.472656-21.523438-49.421875-40.183594-11.253906-23.472656-12.695312-68.363281 7.675781-75.699219 15.023438-5.40625 40.449219 14.632813 52.816407 49 8.414062 23.375-3.269531 51.851563-11.070313 66.882813zm0 0"/><path d="m160.164062 163.910156h7.644532c8.554687 0 15.492187-6.9375 15.492187-15.496094 0-8.558593-6.9375-15.496093-15.492187-15.496093h-7.644532c-8.558593 0-15.496093 6.9375-15.496093 15.496093 0 8.558594 6.9375 15.496094 15.496093 15.496094zm0 0"/><path d="m306.476562 163.910156h7.640626c8.558593 0 15.496093-6.9375 15.496093-15.496094 0-8.558593-6.9375-15.496093-15.496093-15.496093h-7.640626c-8.558593 0-15.496093 6.9375-15.496093 15.496093 0 8.558594 6.9375 15.496094 15.496093 15.496094zm0 0"/><path d="m299.222656 349.773438c-8.554687 0-15.492187 6.9375-15.492187 15.496093v10.613281c0 8.558594 6.9375 15.496094 15.492187 15.496094 8.558594 0 15.496094-6.9375 15.496094-15.496094v-10.613281c0-8.558593-6.9375-15.496093-15.496094-15.496093zm0 0"/><path d="m144.414062 300.671875c-8.558593 0-15.496093 6.9375-15.496093 15.496094v11c0 8.558593 6.9375 15.496093 15.496093 15.496093 8.558594 0 15.496094-6.9375 15.496094-15.496093v-11c0-8.558594-6.9375-15.496094-15.496094-15.496094zm0 0"/><path d="m339.300781 323.515625c-8.558593 0-15.496093 6.9375-15.496093 15.496094v11c0 8.558593 6.9375 15.496093 15.496093 15.496093 8.554688 0 15.492188-6.9375 15.492188-15.496093v-11c0-8.558594-6.933594-15.496094-15.492188-15.496094zm0 0"/><path d="m193.335938 180.429688 34.320312 26.574218c5.585938 4.324219 13.386719 4.324219 18.972656 0l34.316406-26.574218c3.789063-2.9375 6.007813-7.460938 6.007813-12.253907s-2.214844-9.316406-6.007813-12.25l-34.316406-26.578125c-5.585937-4.324218-13.386718-4.324218-18.972656 0l-34.320312 26.578125c-3.789063 2.933594-6.007813 7.457031-6.007813 12.25s2.21875 9.316407 6.007813 12.253907zm43.804687-19.230469 9.011719 6.976562-9.011719 6.980469-9.007813-6.980469zm0 0"/></svg>